<?xml version="1.0" encoding="utf-8"?>
<!-- Generator: Adobe Illustrator 22.0.0, SVG Export Plug-In . SVG Version: 6.00 Build 0)  -->
<svg version="1.1" id="图层_1" xmlns="http://www.w3.org/2000/svg" xmlns:xlink="http://www.w3.org/1999/xlink" x="0px" y="0px"
	 viewBox="0 0 16.8 16" style="enable-background:new 0 0 16.8 16;" xml:space="preserve">
<style type="text/css">
	.st0{fill:#1296DB;}
</style>
<path class="st0" d="M7.6,8.3V7.2H6.3c-0.3,0-0.6-0.3-0.6-0.6l0,0V4.3c0-0.3,0.3-0.6,0.6-0.6c0,0,0,0,0,0h3.5c0.3,0,0.6,0.3,0.6,0.6
	v2.3c0,0.3-0.3,0.6-0.6,0.6H8.5v1.2h3c0.3,0,0.5,0.2,0.5,0.5v2.3h1.3c0.3,0,0.6,0.3,0.6,0.6l0,0v2.3c0,0.3-0.3,0.6-0.6,0.6l0,0H9.8
	c-0.3,0-0.6-0.3-0.6-0.6v-2.3c0-0.3,0.3-0.6,0.6-0.6h1.3V9.3H5l0,1.9h1.3c0.3,0,0.6,0.3,0.6,0.6v2.3c0,0.3-0.3,0.6-0.6,0.6H2.8
	c-0.3,0-0.6-0.3-0.6-0.6v-2.3c0-0.3,0.3-0.6,0.6-0.6H4l0-2.3c0-0.3,0.2-0.5,0.5-0.5C4.5,8.3,7.6,8.3,7.6,8.3z M6.6,4.6v1.6h2.8V4.6
	H6.6z M10.1,13.7h2.8v-1.6h-2.8V13.7z M3.1,12.1v1.6h2.8v-1.6C5.9,12.1,3.1,12.1,3.1,12.1z"/>
</svg>
